<svg width="82" height="87" viewBox="0 0 82 87" fill="none" xmlns="http://www.w3.org/2000/svg">
    <style>
        path {
            fill: #0660A9;
        }
        @media (prefers-color-scheme: dark) {
            path {
                fill: #FFFFFF;
            }
        }
    </style>

    <path d="M56.5 51.3C60.7 43.4 63.9 35.2 65.9 28.3C65.2 28.2 64.4 28.1 63.6 28.1C61.7 34.6 58.7 42.5 54.5 50.3C53.7 51.7 53 53.2 52.2 54.5C53.3 54.1 54.4 53.8 55.5 53.4C55.7 52.6 56.1 52 56.5 51.3Z" fill="#0660A9"/>
    <path d="M27.3 35.9C27.8 35 28.3 34.1 28.8 33.2C27.7 33.5 26.7 33.9 25.6 34.2C25.5 34.4 25.4 34.6 25.3 34.8C20.7 43.5 17.4 52 15.5 59.5C16.3 59.6 17 59.6 17.8 59.6C19.6 52.7 22.8 44.6 27.3 35.9Z" fill="#0660A9"/>
    <path d="M22.9 46.8C22.6 47.6 22.2 48.4 21.9 49.2C25.2 52.1 29.3 54.9 34 57.2C38.8 59.6 43.8 61.1 48.5 61.9C49 61.2 49.5 60.5 49.9 59.7C45.2 59.1 40 57.5 35.1 55.1C30.3 52.7 26.1 49.8 22.9 46.8Z" fill="#0660A9"/>
    <path d="M64.6 42C60.8 37 54.9 32.4 47.8 28.9C40.9 25.6 33.8 23.7 27.6 23.7C20.8 23.7 16 25.9 14 29.9C11.6 34.9 14.1 41.4 20.1 47.4C20.4 46.6 20.8 45.8 21.1 44.9C16.4 39.9 14.3 34.6 16.2 30.9C17.7 27.8 21.9 26 27.6 26C33.4 26 40.2 27.8 46.7 30.9C53.4 34.2 59.1 38.6 62.6 43.3C66 47.8 67 51.9 65.5 55C64 58.1 59.8 59.9 54.1 59.9C53.5 59.9 53 59.9 52.4 59.8C51.9 60.6 51.5 61.3 51 62.1C52.1 62.2 53.1 62.3 54.1 62.3C60.9 62.3 65.7 60.1 67.7 56.1C69.6 52.2 68.5 47.2 64.6 42Z" fill="#0660A9"/>
    <path d="M50.3 57.5C40.8 72.9 29.4 83.8 22.2 83.8C21.3 83.8 20.4 83.6 19.7 83.2C15.8 81.1 14.8 73.2 17.3 62C16.5 62 15.7 61.9 15 61.8C12.4 73.5 13.5 82.4 18.6 85.2C19.7 85.8 20.9 86.1 22.2 86.1C30.7 86.1 43.2 74.1 53.6 56.5C52.5 56.8 51.4 57.2 50.3 57.5Z" fill="#0660A9"/>
    <path d="M43.9 56.1C42 56.5 40.2 56.9 38.4 57.2C39.9 57.8 41.4 58.3 42.8 58.7C43.4 58.6 43.9 58.5 44.5 58.3C52.3 56.5 59.7 53.9 65.7 51C65.6 50.3 65.3 49.5 65 48.7C59 51.7 51.7 54.3 43.9 56.1Z" fill="#0660A9"/>
    <path d="M15.2 35.5C15.3 36.3 15.5 37.1 15.8 37.9C21.6 34.9 29.1 32.1 37.9 30.1C39 29.9 40.1 29.6 41.2 29.4C39.7 28.8 38.1 28.4 36.6 28C28.4 29.9 21.1 32.5 15.2 35.5Z" fill="#0660A9"/>
    <path d="M34 57.9C29.9 58.5 25.9 58.8 22.2 58.8C11 58.8 3.49999 56.2 2.49999 52C1.69999 48.4 5.79999 43.6 13.7 39.1C13.4 38.3 13.2 37.5 13 36.8C4.09999 41.8 -1.00001 47.6 0.199988 52.6C1.49999 58.1 9.49999 61.2 22.2 61.2C27.2 61.2 32.6 60.7 38.1 59.7C36.7 59.1 35.3 58.5 34 57.9Z" fill="#0660A9"/>
    <path d="M81.7 33.6C80.4 28.1 72.4 25 59.7 25C54 25 47.8 25.7 41.4 26.9C42.8 27.4 44.2 28 45.6 28.6C50.5 27.8 55.3 27.4 59.7 27.4C70.9 27.4 78.4 30 79.4 34.2C80.1 37.4 77 41.6 70.6 45.6C69.5 46.3 68.4 47 67.2 47.6C67.5 48.4 67.8 49.2 67.9 49.9C69.3 49.2 70.6 48.4 71.9 47.6C79.2 42.9 82.7 37.9 81.7 33.6Z" fill="#0660A9"/>
    <path fill-rule="evenodd" clip-rule="evenodd" d="M46.9 43.3C46.9 46.9 43.9 49.9 40.3 49.9C36.7 49.9 33.7 46.9 33.7 43.3C33.7 39.7 36.7 36.7 40.3 36.7C44 36.7 46.9 39.6 46.9 43.3Z" fill="#0660A9"/>
    <path d="M30.6 30.2C31.4 28.8 32.3 27.4 33.2 26.1C32.3 26 31.5 25.8 30.7 25.8C29.6 27.5 28.5 29.4 27.4 31.2C28.4 30.8 29.5 30.5 30.6 30.2Z" fill="#0660A9"/>
    <path d="M34.6 23.9C43.4 11 53.2 2.3 59.6 2.3C60.5 2.3 61.4 2.5 62.1 2.9C66.3 5.1 67.2 13.9 64 26.3C64.8 26.4 65.6 26.4 66.3 26.5C69.6 13.7 68.7 3.8 63.2 0.9C62.1 0.3 60.9 0 59.6 0C52.1 0 41.5 9.2 32.1 23.4C32.9 23.6 33.7 23.7 34.6 23.9Z" fill="#0660A9"/>
<script xmlns=""/></svg>